# xmcd
#
# Track frame offsets:
#	150
#	16648
#	28471
#	42246
#	55272
#	69493
#	79758
#	91285
#	103476
#	115375
#	127411
#	140889
#	158679
#	171908
#	183158
#	195257
#	207882
#	219931
#
# Disc length: 3121 seconds
#
# Revision: 3
# Processed by: cddbd v1.5.2PL0 Copyright (c) Steve Scherf et al.
# Submitted via: EasyCDDAExtractor 10.0.2.1
#
DISCID=040c2f12
DTITLE=Various Artist - Complete Country  [Disc 2]
DYEAR=2006
DGENRE=Country
TTITLE0=Kenny Rogers - Lucille
TTITLE1=Tennessee Ernie Ford - Sixteen Tons
TTITLE2=Willie Nelson - Funny How Time Slips Away
TTITLE3=Bobby Gentry - I'll Never Fall in Love Again
TTITLE4=Helen Reddy - Delta Dawn
TTITLE5=Jimmie Rogers - Honeycomb
TTITLE6=Jody Miller - He Walks Like a Man
TTITLE7=Merle Haggard - If We Make It Through Decemer
TTITLE8=Billy Jo Spears - Misty Blue
TTITLE9=Glen Campbell - Galveston
TTITLE10=Dr. Hook - Walk right in
TTITLE11=Bobby Goldsboro - Honey
TTITLE12=Crystal Gayle - Talking In Your Sleep
TTITLE13=Sonny James - Take Good Care of Her
TTITLE14=Wanda Jackson - Stand By Your Man
TTITLE15=Tex Ritter - High Noon (Do Not Forsake Me)
TTITLE16=George Jones and Melba Montgomery - We Must Have Been Out of Our Minds
TTITLE17=Red Simpson - I'm a Truck
EXTD=
EXTT0=
EXTT1=
EXTT2=
EXTT3=
EXTT4=
EXTT5=
EXTT6=
EXTT7=
EXTT8=
EXTT9=
EXTT10=
EXTT11=
EXTT12=
EXTT13=
EXTT14=
EXTT15=
EXTT16=
EXTT17=
PLAYORDER=
